<svg width="80" height="80" viewBox="0 0 80 80" fill="none" xmlns="http://www.w3.org/2000/svg">
<path fill-rule="evenodd" clip-rule="evenodd" d="M40 80C62.0914 80 80 62.0914 80 40C80 17.9086 62.0914 0 40 0C17.9086 0 0 17.9086 0 40C0 62.0914 17.9086 80 40 80Z" fill="#328EF5"/>
<path d="M21.0972 21.9752C21.03 21.9074 20.9951 21.8137 21.0006 21.718C21.0076 21.6223 21.0545 21.5341 21.1297 21.4755C32.1924 12.9388 47.6496 12.9447 58.7178 21.4894L58.7496 21.5179C58.878 21.6474 58.8785 21.8573 58.7507 21.9872L49.539 31.2872C49.4314 31.3958 49.2641 31.4159 49.1342 31.3357C43.5417 27.84 36.3149 27.8377 30.7209 31.3312C30.5911 31.4114 30.4237 31.3911 30.316 31.2824L21.0972 21.9752Z" fill="white"/>
<path d="M31.2854 51.2048C36.1787 56.1366 44.1382 56.1392 49.0285 51.2103C53.152 47.0544 53.8804 40.6486 50.7996 35.6346C50.7424 35.541 50.7566 35.4202 50.834 35.3428L57.4218 28.703C57.4655 28.658 57.5253 28.6326 57.5877 28.6326C57.6502 28.6327 57.71 28.6581 57.7536 28.7031L57.7744 28.7267C64.4896 37.5845 63.6605 50.2015 55.844 58.0795C47.195 66.7966 33.121 66.7933 24.4698 58.074C16.6666 50.2093 15.8199 37.626 22.4853 28.774C22.5119 28.6971 22.5758 28.6394 22.6546 28.6213C22.7334 28.6032 22.8159 28.6273 22.873 28.685C22.8756 28.6876 22.8795 28.6889 22.8815 28.6935L29.4725 35.3364C29.5499 35.4144 29.5642 35.5351 29.5077 35.6275C26.4272 40.6407 27.1586 47.0455 31.2854 51.2048Z" fill="white"/>
<path fill-rule="evenodd" clip-rule="evenodd" d="M34.5711 42.4615C35.5907 42.4615 36.4173 41.635 36.4173 40.6154C36.4173 39.5958 35.5907 38.7692 34.5711 38.7692C33.5515 38.7692 32.725 39.5958 32.725 40.6154C32.725 41.635 33.5515 42.4615 34.5711 42.4615Z" fill="white"/>
<path fill-rule="evenodd" clip-rule="evenodd" d="M45.7309 42.4615C46.7505 42.4615 47.577 41.635 47.577 40.6154C47.577 39.5958 46.7505 38.7692 45.7309 38.7692C44.7113 38.7692 43.8847 39.5958 43.8847 40.6154C43.8847 41.635 44.7113 42.4615 45.7309 42.4615Z" fill="white"/>
</svg>
