<svg width="372" height="144" viewBox="0 0 372 144" fill="none" xmlns="http://www.w3.org/2000/svg">
<path d="M42.049 21.9208C55.2767 8.69307 76.7231 8.69307 89.9508 21.9208L116.079 48.049C129.307 61.2767 129.307 82.7231 116.079 95.9508L89.9508 122.079C76.7231 135.307 55.2767 135.307 42.049 122.079L15.9208 95.9508C2.69307 82.7231 2.69307 61.2767 15.9208 48.049L42.049 21.9208Z" fill="#3C5AD0"/>
<path d="M116.079 48.049C129.307 61.2767 129.307 82.723 116.079 95.9507L89.951 122.079C76.7233 135.307 55.2769 135.307 42.0492 122.079C28.8215 108.851 28.8215 87.4049 42.0492 74.1772L68.1774 48.049C81.4051 34.8212 102.851 34.8212 116.079 48.049Z" fill="#3DC8FF"/>
<path d="M53.6826 31.8413C53.6826 28.4401 56.4399 25.6829 59.8411 25.6829H72.1581C75.5593 25.6829 78.3166 28.4401 78.3166 31.8413C78.3166 35.2426 75.5593 37.9998 72.1581 37.9998H59.8411C56.4399 37.9998 53.6826 35.2426 53.6826 31.8413Z" fill="white"/>
<g filter="url(#filter0_d)">
<path d="M65.7506 41.8489C70.761 41.8489 75.1698 45.1566 76.5713 49.967L87.1841 86.3951C88.3723 90.4735 87.375 94.8764 84.5453 98.0448L74.6954 109.074C69.8852 114.46 61.4947 114.571 56.5432 109.315L46.2909 98.4309C43.2474 95.2 42.1777 90.5815 43.4908 86.3416L54.7615 49.9495C56.2533 45.1327 60.7081 41.8489 65.7506 41.8489Z" fill="white"/>
</g>
<path d="M176.832 62.04V52.744H142.336V62.04H153.704V92H165.408V62.04H176.832Z" fill="white"/>
<path d="M191.171 61.088C186.411 61.088 181.483 62.208 176.499 64.224L179.299 71.728C182.659 70.272 186.075 69.544 188.483 69.544C191.955 69.544 193.747 71.056 193.747 73.576V73.688H186.299C178.627 73.8 174.539 77.048 174.539 82.928C174.539 88.64 178.347 92.504 184.843 92.504C188.875 92.504 191.899 91.104 193.747 88.64V92H204.835V72.232C204.835 65.176 199.739 61.088 191.171 61.088ZM188.595 85.112C186.411 85.112 185.179 83.992 185.179 82.088C185.179 80.184 186.355 79.232 188.595 79.232H193.747V81.976C192.907 83.88 190.891 85.112 188.595 85.112Z" fill="white"/>
<path d="M215.443 47.032C212.027 47.032 209.619 49.44 209.619 52.856C209.619 56.272 212.027 58.68 215.443 58.68C218.859 58.68 221.267 56.272 221.267 52.856C221.267 49.44 218.859 47.032 215.443 47.032ZM221.043 92V61.536H209.731V92H221.043Z" fill="white"/>
<path d="M238.359 92V50.448H227.047V92H238.359Z" fill="white"/>
<path d="M259.021 61.144C248.773 61.144 242.053 67.304 242.053 76.768C242.053 86.176 248.773 92.392 259.021 92.392C269.269 92.392 275.933 86.176 275.933 76.768C275.933 67.304 269.269 61.144 259.021 61.144ZM259.021 70.104C262.325 70.104 264.509 72.848 264.509 76.88C264.509 80.968 262.325 83.656 259.021 83.656C255.661 83.656 253.477 80.968 253.477 76.88C253.477 72.848 255.661 70.104 259.021 70.104Z" fill="white"/>
<path d="M290.581 61.536H279.269V92H290.581V77.44C290.581 73.016 294.333 70.552 300.157 71.28V61.088C296.013 61.088 292.709 62.992 290.581 66.352V61.536Z" fill="white"/>
<path d="M350.338 52.744H338.69V75.424C338.69 80.016 335.946 82.76 332.082 82.76C328.162 82.76 325.082 79.96 325.082 75.424V52.744H313.434V75.424C313.434 85.84 320.77 92.504 332.026 92.504C343.226 92.504 350.338 85.84 350.338 75.424V52.744Z" fill="white"/>
<path d="M366.851 92V52.744H355.203V92H366.851Z" fill="white"/>
<defs>
<filter id="filter0_d" x="34.9392" y="37.8489" width="60.7367" height="87.3372" filterUnits="userSpaceOnUse" color-interpolation-filters="sRGB">
<feFlood flood-opacity="0" result="BackgroundImageFix"/>
<feColorMatrix in="SourceAlpha" type="matrix" values="0 0 0 0 0 0 0 0 0 0 0 0 0 0 0 0 0 0 127 0"/>
<feOffset dy="4"/>
<feGaussianBlur stdDeviation="4"/>
<feColorMatrix type="matrix" values="0 0 0 0 0.0930209 0 0 0 0 0.193253 0 0 0 0 0.5875 0 0 0 0.2 0"/>
<feBlend mode="normal" in2="BackgroundImageFix" result="effect1_dropShadow"/>
<feBlend mode="normal" in="SourceGraphic" in2="effect1_dropShadow" result="shape"/>
</filter>
</defs>
</svg>
