<svg width="200" height="252" viewBox="0 0 200 252" fill="none" xmlns="http://www.w3.org/2000/svg">
<path d="M68.0652 29.2277C85.7022 11.5908 114.297 11.5908 131.934 29.2277L166.772 64.0653C184.409 81.7023 184.409 110.297 166.772 127.934L131.934 162.772C114.297 180.409 85.7022 180.409 68.0652 162.772L33.2276 127.934C15.5906 110.297 15.5906 81.7023 33.2276 64.0653L68.0652 29.2277Z" fill="#3C5AD0"/>
<path d="M166.772 64.0654C184.409 81.7023 184.409 110.297 166.772 127.934L131.934 162.772C114.298 180.409 85.7024 180.409 68.0655 162.772C50.4285 145.135 50.4285 116.54 68.0655 98.903L102.903 64.0654C120.54 46.4284 149.135 46.4284 166.772 64.0654Z" fill="#3DC8FF"/>
<path d="M83.5769 42.4552C83.5769 37.9202 87.2532 34.2439 91.7882 34.2439H108.211C112.746 34.2439 116.422 37.9202 116.422 42.4552C116.422 46.9902 112.746 50.6665 108.211 50.6665H91.7882C87.2532 50.6665 83.5769 46.9902 83.5769 42.4552Z" fill="white"/>
<g filter="url(#filter0_d)">
<path d="M99.6674 55.7986C106.348 55.7986 112.226 60.2089 114.095 66.6228L128.245 115.194C129.83 120.631 128.5 126.502 124.727 130.726L111.594 145.432C105.18 152.613 93.9928 152.761 87.3909 145.753L73.7211 131.241C69.6631 126.933 68.2368 120.775 69.9877 115.122L85.0153 66.5994C87.0044 60.177 92.9441 55.7986 99.6674 55.7986Z" fill="white"/>
</g>
<path d="M35.3679 211.46V204.156H8.26392V211.46H17.1959V235H26.3919V211.46H35.3679Z" fill="#001E40"/>
<path d="M47.5143 210.712C43.7743 210.712 39.9023 211.592 35.9863 213.176L38.1863 219.072C40.8263 217.928 43.5103 217.356 45.4023 217.356C48.1303 217.356 49.5383 218.544 49.5383 220.524V220.612H43.6863C37.6583 220.7 34.4463 223.252 34.4463 227.872C34.4463 232.36 37.4383 235.396 42.5423 235.396C45.7103 235.396 48.0863 234.296 49.5383 232.36V235H58.2503V219.468C58.2503 213.924 54.2463 210.712 47.5143 210.712ZM45.4903 229.588C43.7743 229.588 42.8063 228.708 42.8063 227.212C42.8063 225.716 43.7303 224.968 45.4903 224.968H49.5383V227.124C48.8783 228.62 47.2943 229.588 45.4903 229.588Z" fill="#001E40"/>
<path d="M67.4649 199.668C64.7809 199.668 62.8889 201.56 62.8889 204.244C62.8889 206.928 64.7809 208.82 67.4649 208.82C70.1489 208.82 72.0409 206.928 72.0409 204.244C72.0409 201.56 70.1489 199.668 67.4649 199.668ZM71.8649 235V211.064H62.9769V235H71.8649Z" fill="#001E40"/>
<path d="M86.3505 235V202.352H77.4625V235H86.3505Z" fill="#001E40"/>
<path d="M103.465 210.756C95.4128 210.756 90.1328 215.596 90.1328 223.032C90.1328 230.424 95.4128 235.308 103.465 235.308C111.517 235.308 116.753 230.424 116.753 223.032C116.753 215.596 111.517 210.756 103.465 210.756ZM103.465 217.796C106.061 217.796 107.777 219.952 107.777 223.12C107.777 226.332 106.061 228.444 103.465 228.444C100.825 228.444 99.1088 226.332 99.1088 223.12C99.1088 219.952 100.825 217.796 103.465 217.796Z" fill="#001E40"/>
<path d="M129.142 211.064H120.254V235H129.142V223.56C129.142 220.084 132.09 218.148 136.666 218.72V210.712C133.41 210.712 130.814 212.208 129.142 214.848V211.064Z" fill="#001E40"/>
<path d="M177.854 204.156H168.702V221.976C168.702 225.584 166.546 227.74 163.51 227.74C160.43 227.74 158.01 225.54 158.01 221.976V204.156H148.858V221.976C148.858 230.16 154.622 235.396 163.466 235.396C172.266 235.396 177.854 230.16 177.854 221.976V204.156Z" fill="#001E40"/>
<path d="M191.709 235V204.156H182.557V235H191.709Z" fill="#001E40"/>
<defs>
<filter id="filter0_d" x="61.2522" y="51.7986" width="75.6489" height="111.116" filterUnits="userSpaceOnUse" color-interpolation-filters="sRGB">
<feFlood flood-opacity="0" result="BackgroundImageFix"/>
<feColorMatrix in="SourceAlpha" type="matrix" values="0 0 0 0 0 0 0 0 0 0 0 0 0 0 0 0 0 0 127 0"/>
<feOffset dy="4"/>
<feGaussianBlur stdDeviation="4"/>
<feColorMatrix type="matrix" values="0 0 0 0 0.0930209 0 0 0 0 0.193253 0 0 0 0 0.5875 0 0 0 0.2 0"/>
<feBlend mode="normal" in2="BackgroundImageFix" result="effect1_dropShadow"/>
<feBlend mode="normal" in="SourceGraphic" in2="effect1_dropShadow" result="shape"/>
</filter>
</defs>
</svg>
