<svg width="80" height="80" viewBox="0 0 80 80" fill="none" xmlns="http://www.w3.org/2000/svg">
<path d="M79.5 40C79.5 61.8152 61.8152 79.5 40 79.5C18.1848 79.5 0.5 61.8152 0.5 40C0.5 18.1848 18.1848 0.5 40 0.5C61.8152 0.5 79.5 18.1848 79.5 40Z" fill="white" stroke="#DFE3E8"/>
<path fill-rule="evenodd" clip-rule="evenodd" d="M40.1403 10.6666C40.1403 10.6666 40.1403 10.6666 40.1403 10.6666C39.7241 10.6666 39.308 10.7768 38.9352 10.9968C34.2673 13.7542 30.3523 17.7196 27.6133 22.4639C24.7903 27.3539 23.2982 32.9548 23.2982 38.6608C23.2982 43.2212 24.2209 47.6265 26.0403 51.7542C27.7973 55.7404 30.2956 59.2636 33.4661 62.2263C33.4752 62.2348 33.4918 62.2512 33.5014 62.2606C33.5053 62.2645 33.5081 62.2672 33.5087 62.2678C33.5096 62.2687 33.5103 62.2696 33.5114 62.2705L33.4907 62.2889C33.4645 62.3117 33.4385 62.335 33.4133 62.3588C32.7521 62.9448 32.0557 63.5027 31.3425 64.018C31.3247 64.0311 31.3069 64.0442 31.2892 64.0577C30.5089 64.6351 30.048 65.5511 30.048 66.543C30.048 68.2364 31.3973 69.614 33.0559 69.614C33.3468 69.614 33.6349 69.5709 33.9136 69.4859C36.0681 68.8891 38.1568 68.0546 40.1403 66.9996V10.6666Z" fill="url(#paint0_linear)"/>
<path fill-rule="evenodd" clip-rule="evenodd" d="M33.5096 62.3495C33.5094 62.3493 33.5092 62.349 33.509 62.3488C33.5092 62.349 33.5094 62.3493 33.5096 62.3495C33.5102 62.3501 33.5108 62.3507 33.5115 62.3513C33.5108 62.3507 33.5102 62.3501 33.5096 62.3495ZM40.1405 67.0877C40.5315 66.8794 40.9185 66.6624 41.3011 66.437C41.3064 66.4341 41.3116 66.4311 41.3168 66.4282C41.3264 66.4227 41.3358 66.4172 41.3453 66.4115C46.0132 63.6498 49.9282 59.6782 52.6672 54.9263C55.4902 50.0286 56.9824 44.4191 56.9824 38.7046C56.9824 32.9898 55.4902 27.3803 52.6672 22.4824C49.9284 17.7307 46.0132 13.7591 41.3453 10.9974C40.9726 10.777 40.5565 10.6667 40.1405 10.6667V67.0877ZM33.5015 62.3414L33.5012 62.3411C33.4921 62.3321 33.4772 62.3174 33.468 62.3087C33.4773 62.3176 33.4925 62.3325 33.5015 62.3414Z" fill="url(#paint1_linear)"/>
<path fill-rule="evenodd" clip-rule="evenodd" d="M54.456 25.923L40.1404 40.1403V10.6667C40.5574 10.6667 40.9745 10.7763 41.3481 10.9954C46.0269 13.7402 49.9512 17.6875 52.6964 22.4102C53.3562 23.5452 53.9434 24.7187 54.456 25.923Z" fill="#ECF6FE"/>
<defs>
<linearGradient id="paint0_linear" x1="25.5104" y1="26.152" x2="25.5104" y2="69.614" gradientUnits="userSpaceOnUse">
<stop stop-color="#13BDFF"/>
<stop offset="1" stop-color="#3F83FF"/>
</linearGradient>
<linearGradient id="paint1_linear" x1="36.2215" y1="23.8806" x2="36.2215" y2="67.0877" gradientUnits="userSpaceOnUse">
<stop stop-color="#D8EDFF"/>
<stop offset="1" stop-color="#8DC9FF"/>
</linearGradient>
</defs>
</svg>
