<svg width="200" height="240" viewBox="0 0 200 240" fill="none" xmlns="http://www.w3.org/2000/svg">
<path d="M68.0653 21.2277C85.7023 3.59077 114.297 3.59076 131.934 21.2277L166.772 56.0653C184.409 73.7023 184.409 102.297 166.772 119.934L131.934 154.772C114.297 172.409 85.7023 172.409 68.0653 154.772L33.2277 119.934C15.5908 102.297 15.5908 73.7023 33.2277 56.0653L68.0653 21.2277Z" fill="#3C5AD0"/>
<path d="M166.772 56.0654C184.409 73.7023 184.409 102.297 166.772 119.934L131.935 154.772C114.298 172.409 85.7025 172.409 68.0656 154.772C50.4287 137.135 50.4287 108.54 68.0656 90.903L102.903 56.0654C120.54 38.4284 149.135 38.4284 166.772 56.0654Z" fill="#3DC8FF"/>
<path d="M83.5769 34.4552C83.5769 29.9202 87.2532 26.2439 91.7882 26.2439H108.211C112.746 26.2439 116.422 29.9202 116.422 34.4552C116.422 38.9902 112.746 42.6665 108.211 42.6665H91.7882C87.2532 42.6665 83.5769 38.9902 83.5769 34.4552Z" fill="white"/>
<g filter="url(#filter0_d)">
<path d="M99.6674 47.7986C106.348 47.7986 112.226 52.2089 114.095 58.6228L128.245 107.194C129.83 112.631 128.5 118.502 124.727 122.726L111.594 137.432C105.18 144.613 93.9928 144.761 87.3909 137.753L73.7211 123.241C69.6631 118.933 68.2368 112.775 69.9877 107.122L85.0153 58.5994C87.0044 52.177 92.9441 47.7986 99.6674 47.7986Z" fill="white"/>
</g>
<path d="M35.3679 203.46V196.156H8.26392V203.46H17.1959V227H26.3919V203.46H35.3679Z" fill="white"/>
<path d="M47.5143 202.712C43.7743 202.712 39.9023 203.592 35.9863 205.176L38.1863 211.072C40.8263 209.928 43.5103 209.356 45.4023 209.356C48.1303 209.356 49.5383 210.544 49.5383 212.524V212.612H43.6863C37.6583 212.7 34.4463 215.252 34.4463 219.872C34.4463 224.36 37.4383 227.396 42.5423 227.396C45.7103 227.396 48.0863 226.296 49.5383 224.36V227H58.2503V211.468C58.2503 205.924 54.2463 202.712 47.5143 202.712ZM45.4903 221.588C43.7743 221.588 42.8063 220.708 42.8063 219.212C42.8063 217.716 43.7303 216.968 45.4903 216.968H49.5383V219.124C48.8783 220.62 47.2943 221.588 45.4903 221.588Z" fill="white"/>
<path d="M67.4649 191.668C64.7809 191.668 62.8889 193.56 62.8889 196.244C62.8889 198.928 64.7809 200.82 67.4649 200.82C70.1489 200.82 72.0409 198.928 72.0409 196.244C72.0409 193.56 70.1489 191.668 67.4649 191.668ZM71.8649 227V203.064H62.9769V227H71.8649Z" fill="white"/>
<path d="M86.3505 227V194.352H77.4625V227H86.3505Z" fill="white"/>
<path d="M103.465 202.756C95.4128 202.756 90.1328 207.596 90.1328 215.032C90.1328 222.424 95.4128 227.308 103.465 227.308C111.517 227.308 116.753 222.424 116.753 215.032C116.753 207.596 111.517 202.756 103.465 202.756ZM103.465 209.796C106.061 209.796 107.777 211.952 107.777 215.12C107.777 218.332 106.061 220.444 103.465 220.444C100.825 220.444 99.1088 218.332 99.1088 215.12C99.1088 211.952 100.825 209.796 103.465 209.796Z" fill="white"/>
<path d="M129.142 203.064H120.254V227H129.142V215.56C129.142 212.084 132.09 210.148 136.666 210.72V202.712C133.41 202.712 130.814 204.208 129.142 206.848V203.064Z" fill="white"/>
<path d="M177.854 196.156H168.702V213.976C168.702 217.584 166.546 219.74 163.51 219.74C160.43 219.74 158.01 217.54 158.01 213.976V196.156H148.858V213.976C148.858 222.16 154.622 227.396 163.466 227.396C172.266 227.396 177.854 222.16 177.854 213.976V196.156Z" fill="white"/>
<path d="M191.709 227V196.156H182.557V227H191.709Z" fill="white"/>
<defs>
<filter id="filter0_d" x="61.2522" y="43.7986" width="75.6489" height="111.116" filterUnits="userSpaceOnUse" color-interpolation-filters="sRGB">
<feFlood flood-opacity="0" result="BackgroundImageFix"/>
<feColorMatrix in="SourceAlpha" type="matrix" values="0 0 0 0 0 0 0 0 0 0 0 0 0 0 0 0 0 0 127 0"/>
<feOffset dy="4"/>
<feGaussianBlur stdDeviation="4"/>
<feColorMatrix type="matrix" values="0 0 0 0 0.0930209 0 0 0 0 0.193253 0 0 0 0 0.5875 0 0 0 0.2 0"/>
<feBlend mode="normal" in2="BackgroundImageFix" result="effect1_dropShadow"/>
<feBlend mode="normal" in="SourceGraphic" in2="effect1_dropShadow" result="shape"/>
</filter>
</defs>
</svg>
